<svg width="374" height="97" viewBox="0 0 374 97" fill="none" xmlns="http://www.w3.org/2000/svg">
<g clip-path="url(#clip0)">
<path d="M137.448 59.5157V62.6819C137.454 64.2271 137.15 65.7576 136.555 67.1804C135.979 68.5795 135.154 69.8591 134.121 70.9551C133.08 72.0627 131.837 72.9563 130.462 73.5867C129.049 74.239 127.512 74.5702 125.959 74.5571C124.535 74.5606 123.116 74.3726 121.74 73.9979C120.333 73.6201 119.025 72.9321 117.911 71.983C116.724 70.9644 115.767 69.6997 115.103 68.2741C114.309 66.4651 113.932 64.4963 114 62.5174V34.2439C113.973 32.6459 114.248 31.0574 114.811 29.5645C115.36 28.161 116.189 26.8872 117.245 25.8227C118.312 24.7568 119.578 23.918 120.969 23.3556C122.494 22.7411 124.124 22.4366 125.764 22.4592C127.306 22.3998 128.842 22.6701 130.274 23.2525C131.705 23.8348 132.999 24.7162 134.072 25.8392C135.126 26.9753 135.952 28.3074 136.506 29.762C137.111 31.3342 137.414 33.0089 137.399 34.6963V37.5746H130.154V35.1074C130.18 33.7574 129.754 32.4381 128.945 31.3656C128.568 30.8581 128.077 30.4499 127.512 30.1751C126.947 29.9003 126.326 29.7671 125.699 29.7866C123.898 29.7866 122.703 30.3349 122.113 31.4314C121.479 32.7652 121.175 34.2361 121.229 35.716V61.9171C121.183 63.2347 121.515 64.5376 122.186 65.6671C122.827 66.6705 123.971 67.1721 125.635 67.1721C126.152 67.1649 126.666 67.0818 127.16 66.9254C127.715 66.7519 128.233 66.4728 128.685 66.103C129.149 65.6584 129.512 65.1168 129.748 64.5158C130.058 63.715 130.204 62.859 130.178 61.9993V59.4828L137.448 59.5157Z" fill="white"/>
<path d="M143.338 74.1297V22.8706H155.005C163.524 22.8706 167.783 27.8871 167.783 37.9202C167.854 40.5551 167.384 43.1762 166.404 45.6177C165.39 47.8256 163.676 49.6262 161.536 50.7329L169.349 74.1297H161.658L154.916 52.2461H150.583V74.1297H143.338ZM150.583 29.7868V45.7657H154.705C155.748 45.8098 156.789 45.6246 157.755 45.223C158.482 44.8922 159.099 44.3552 159.532 43.6769C159.951 42.9125 160.226 42.0759 160.343 41.2097C160.625 38.9379 160.625 36.6393 160.343 34.3675C160.246 33.4709 159.97 32.6037 159.532 31.8181C158.632 30.4694 156.928 29.8033 154.421 29.8033L150.583 29.7868Z" fill="white"/>
<path d="M179.061 74.1295V52.4598L169.122 22.854H176.789L182.59 43.2491H182.728L188.553 22.8705H196.221L186.282 52.4762V74.146L179.061 74.1295Z" fill="white"/>
<path d="M199.872 74.1298V22.8707H210.736C212.521 22.8498 214.297 23.1277 215.993 23.6931C217.572 24.268 218.986 25.2316 220.107 26.4974C221.333 27.8279 222.211 29.4477 222.662 31.2096C223.203 33.6065 223.443 36.0629 223.376 38.5206C223.401 40.4716 223.271 42.4215 222.987 44.3514C222.725 45.9342 222.157 47.449 221.316 48.8087C220.359 50.454 218.987 51.8109 217.34 52.7397C215.313 53.7532 213.067 54.2339 210.809 54.1377H207.109V74.1545L199.872 74.1298ZM207.109 29.7869V47.205H210.59C211.761 47.2689 212.929 47.0461 213.997 46.5553C214.767 46.1665 215.391 45.5343 215.774 44.7543C216.186 43.9286 216.415 43.0224 216.448 42.098C216.521 41.0372 216.561 39.8611 216.561 38.57C216.561 37.2788 216.561 36.2262 216.488 35.1489C216.463 34.1667 216.245 33.1994 215.847 32.3034C215.49 31.5113 214.893 30.8547 214.143 30.4284C213.13 29.9485 212.015 29.7282 210.898 29.7869H207.109Z" fill="white"/>
<path d="M233.526 74.1297V29.7868H225.153V22.8706H249.12V29.7868H240.771V74.1297H233.526Z" fill="white"/>
<path d="M252.365 74.1297V22.8706H259.61V66.7858H273.955V74.1297H252.365Z" fill="white"/>
<path d="M278.838 74.1297V22.8706H286.084V74.1297H278.838Z" fill="white"/>
<path d="M292.688 34.9674C292.649 33.088 293.011 31.2223 293.751 29.4986C294.406 27.9861 295.375 26.6342 296.591 25.5347C297.727 24.5283 299.04 23.7472 300.461 23.232C303.281 22.1792 306.379 22.1792 309.199 23.232C310.637 23.7583 311.972 24.5378 313.142 25.5347C314.318 26.6538 315.259 28.002 315.909 29.4986C316.644 31.2237 317.007 33.0884 316.972 34.9674V37.5579H309.726V34.9674C309.783 34.2456 309.682 33.52 309.431 32.842C309.18 32.1641 308.785 31.5505 308.274 31.0447C307.306 30.2309 306.088 29.7855 304.83 29.7855C303.572 29.7855 302.354 30.2309 301.386 31.0447C300.869 31.547 300.47 32.1598 300.218 32.8385C299.965 33.5172 299.865 34.2446 299.925 34.9674V62.032C299.865 62.7549 299.965 63.4822 300.218 64.1609C300.47 64.8396 300.869 65.4525 301.386 65.9548C302.354 66.7686 303.572 67.214 304.83 67.214C306.088 67.214 307.306 66.7686 308.274 65.9548C308.785 65.449 309.18 64.8354 309.431 64.1574C309.682 63.4795 309.783 62.7539 309.726 62.032V52.3855H303.974V45.9051H316.955V62.032C317.005 63.9362 316.642 65.8281 315.892 67.5749C315.241 69.0274 314.299 70.3269 313.126 71.3908C311.971 72.4281 310.633 73.2344 309.183 73.7674C306.363 74.8203 303.265 74.8203 300.445 73.7674C299.011 73.2449 297.695 72.4368 296.575 71.3908C295.362 70.3466 294.392 69.0435 293.735 67.5749C292.982 65.8293 292.619 63.9365 292.672 62.032L292.688 34.9674Z" fill="white"/>
<path d="M323.365 74.1297V22.8706H330.61V44.8282H339.535V22.8706H346.772V74.1297H339.535V51.3086H330.61V74.1297H323.365Z" fill="white"/>
<path d="M358.374 74.1297V29.7868H349.993V22.8706H374V29.7868H365.619V74.1297H358.374Z" fill="white"/>
<path d="M47.8524 97.0082C74.2805 97.0082 95.7048 75.2922 95.7048 48.5041C95.7048 21.716 74.2805 0 47.8524 0C21.4242 0 0 21.716 0 48.5041C0 75.2922 21.4242 97.0082 47.8524 97.0082Z" fill="#48DCA8"/>
<path d="M47.3898 74.5899C61.6031 74.5899 73.1252 62.9108 73.1252 48.5039C73.1252 34.0971 61.6031 22.418 47.3898 22.418C33.1765 22.418 21.6543 34.0971 21.6543 48.5039C21.6543 62.9108 33.1765 74.5899 47.3898 74.5899Z" fill="#90EFCE"/>
<path d="M65.3611 56.5059V58.6852C62.1729 62.3544 58.7642 65.8205 55.1545 69.0637C52.4025 71.5379 49.3486 73.644 46.0676 75.3303C43.4162 76.7209 40.4848 77.475 37.5 77.5342C35.3642 77.5931 33.2493 77.0947 31.3582 76.0868C29.6569 75.1392 28.3004 73.6634 27.4881 71.8762C26.567 69.8117 26.1204 67.5622 26.1819 65.2972C26.2016 63.1549 26.5184 61.026 27.123 58.9731C27.7979 56.6353 28.7116 54.3752 29.8491 52.2296C31.1474 49.7868 32.6141 47.4399 34.2384 45.2064C35.9638 42.7886 37.9976 40.2502 40.3396 37.5911C42.5652 35.0467 44.9645 32.6642 47.5199 30.4611C49.5324 28.7165 51.6814 27.1406 53.9457 25.7488C55.6359 24.7188 57.4245 23.8647 59.2842 23.1994C60.5865 22.7148 61.9549 22.4374 63.3409 22.377C64.3404 22.3516 65.3234 22.6388 66.1562 23.1994C66.966 23.7889 67.5868 24.6069 67.9412 25.5515C68.3819 26.6816 68.597 27.8891 68.574 29.1041C68.574 31.6316 67.7248 34.4441 66.0264 37.5418C64.2363 40.7593 62.1032 43.7681 59.6655 46.514C57.46 49.0832 55.0297 51.4448 52.4041 53.57C50.1 55.3957 48.4394 56.3086 47.4225 56.3086C46.708 56.2965 46.0265 56.0013 45.524 55.4862C45.2545 55.2587 45.0366 54.9748 44.8854 54.654C44.7342 54.3332 44.6531 53.9831 44.6478 53.6276C44.6478 52.3447 45.3131 50.8068 46.6437 48.9976C47.954 47.2093 49.4174 45.5416 51.0167 44.0139C52.5907 42.5007 53.5319 41.7524 53.8483 41.7524C54.0025 41.7524 54.0755 41.8182 54.0755 41.9498C54.0263 42.3174 53.9078 42.6719 53.7266 42.9942C53.5697 43.278 53.4523 43.5824 53.3777 43.8988C53.3777 44.0715 53.4507 44.1619 53.5806 44.1619C53.9538 44.1619 55.0328 43.1504 56.8259 41.1109C58.6548 39.0199 60.2975 36.7687 61.7345 34.3839C63.2273 31.9441 63.9737 29.9375 63.9737 28.364C64.0085 27.8344 63.8624 27.3088 63.56 26.8755C63.4069 26.6974 63.2151 26.5578 62.9996 26.4679C62.7842 26.378 62.551 26.3402 62.3186 26.3574C60.7663 26.3574 58.4215 27.6239 55.2844 30.1568C51.7689 33.0727 48.5335 36.3191 45.6214 39.8527C42.4485 43.5852 39.6795 47.6519 37.362 51.9828C35.1985 56.1605 34.1167 59.8393 34.1167 63.0192C34.0709 64.5893 34.3472 66.1518 34.928 67.6081C35.4224 68.7805 36.2536 69.7749 37.3133 70.4618C38.4547 71.159 39.7703 71.5073 41.1023 71.4651C44.2989 71.4651 47.9283 70.2013 51.9903 67.6739C56.8516 64.4785 61.3375 60.7317 65.3611 56.5059V56.5059Z" fill="white"/>
</g>
<defs>
<clipPath id="clip0">
<rect width="374" height="97" fill="white"/>
</clipPath>
</defs>
</svg>
