<svg xmlns="http://www.w3.org/2000/svg" width="180" height="80" viewBox="0 0 180 80" fill="none"><path d="M116.043 39.7648L104.193 19.2098C101.599 14.9204 95.2615 14.8795 92.7526 19.392L80.3118 40.7647C77.9887 44.6824 80.8582 49.6074 85.5081 49.6074H110.438C115.133 49.6111 118.641 44.5523 116.043 39.7648Z" fill="#00B897"></path><path d="M98.9526 41.3655L98.224 40.0905C97.5401 38.9048 96.0347 36.355 96.0347 36.355L86.01 18.9445C83.4118 15.0714 77.2602 14.7518 74.662 19.6285L62.9943 39.8192C60.5783 44.0566 63.4515 49.5726 68.6925 49.6172H93.4849H104.06H110.345C103.922 49.6581 101.87 46.3314 98.9526 41.3655Z" fill="#76FCB2"></path><path d="M98.9526 41.3152L98.2241 40.0403C97.5401 38.8546 96.0347 36.3047 96.0347 36.3047L89.5634 24.9121L80.2672 40.7725C77.9441 44.6902 80.8136 49.6153 85.4636 49.6153H93.4403H104.015H110.345C103.874 49.5669 101.87 46.2848 98.9526 41.3152Z" fill="url(#paint0_linear_2986:44828)"></path><path d="M131.491 63.9809C130.815 63.9809 130.283 63.8359 129.882 63.5794C129.462 63.3044 129.242 62.903 129.242 62.3528V54.3799H130.302C130.685 54.3799 131.015 54.6921 131.015 55.0936V62.1149C131.015 62.1335 131.015 62.4606 131.29 62.7357C131.454 62.8992 131.655 62.9922 131.93 62.9922H132.13C132.205 62.9922 132.275 63.0665 132.275 63.1371V63.9957L131.491 63.9809Z" fill="#00B897"></path><path d="M108.635 63.9805C107.539 63.9805 106.643 63.6869 105.967 63.1033C105.621 62.8096 105.383 62.4826 105.234 62.1146C105.089 61.7503 105.015 61.2188 105.015 60.5051C105.015 59.81 105.089 59.2599 105.234 58.8956C105.361 58.55 105.599 58.2377 105.948 57.9441C106.624 57.3605 107.52 57.0669 108.617 57.0669C109.713 57.0669 110.609 57.3605 111.286 57.9441C111.631 58.2377 111.869 58.5648 111.999 58.8956C112.144 59.2785 112.219 59.81 112.219 60.5051C112.219 61.2188 112.144 61.7503 111.999 62.1146C111.854 62.4788 111.616 62.8096 111.267 63.1033C110.628 63.6906 109.732 63.9805 108.635 63.9805ZM108.635 58.0779C107.427 58.0779 106.825 58.8994 106.825 60.5274C106.825 62.174 107.427 62.9955 108.635 62.9955C109.843 62.9955 110.446 62.174 110.446 60.546C110.446 58.8994 109.825 58.0779 108.635 58.0779Z" fill="#00B897"></path><path d="M116.203 63.9809C115.252 63.9809 114.374 63.7244 113.624 63.23C113.494 63.1483 113.341 63.0516 113.222 62.955C113.159 62.903 113.155 62.8732 113.148 62.81V54.3799H114.226C114.609 54.3799 114.939 54.7107 114.939 55.0936V57.5616L115.27 57.3795C115.653 57.1788 116.166 57.0859 116.824 57.0859C117.976 57.0859 118.853 57.4315 119.437 58.108C119.95 58.7102 120.206 59.5168 120.206 60.5018C120.206 61.4905 119.913 62.2934 119.329 62.8769C118.656 63.6166 117.593 63.9809 116.203 63.9809ZM116.389 58.0783C115.988 58.0783 115.53 58.2233 115.017 58.5355L114.943 58.5727V62.5387L115.017 62.5944C115.419 62.8509 115.895 62.9773 116.389 62.9773C117.047 62.9773 117.56 62.7022 117.906 62.1558C118.199 61.7172 118.363 61.1485 118.363 60.5092C118.363 58.8997 117.686 58.0783 116.389 58.0783Z" fill="#00B897"></path><path d="M124.433 63.9663C122.422 63.9663 121.158 62.6505 121.158 60.5095C121.158 58.3871 122.403 57.0713 124.395 57.0713C125.165 57.0713 125.823 57.272 126.35 57.6549L126.462 57.7292V57.1977H127.871C127.964 57.1977 128.016 57.272 128.016 57.3426V63.8325H126.443V63.2489L126.332 63.3419C125.897 63.747 125.202 63.9663 124.433 63.9663ZM124.797 58.2422C123.537 58.2422 122.786 59.2123 122.786 60.5095C122.786 61.8067 123.537 62.8141 124.797 62.8141C125.198 62.8141 125.893 62.7769 126.443 62.2305L126.462 62.2119V58.8852L126.443 58.8666C126.061 58.4243 125.492 58.2422 124.797 58.2422Z" fill="#00B897"></path><path d="M60.1584 63.8914V54.3647H68.0756V54.9669C68.0756 55.4427 67.6928 55.8255 67.217 55.8255H62.1359V58.3865H67.2207V59.851H62.1359V62.4121H67.2207C67.6965 62.4121 68.0794 62.7949 68.0794 63.2707V63.8728L60.1584 63.8914Z" fill="white"></path><path d="M79.4495 54.3647H77.5836C77.2379 54.3647 76.9257 54.5097 76.7064 54.7848L74.4576 57.6171L72.2088 54.7996C71.9895 54.5246 71.6773 54.3796 71.3316 54.3796H69.4657L73.2496 59.1337L69.4657 63.8877H71.3316C71.6773 63.8877 71.9895 63.7427 72.2088 63.4677L74.4576 60.6502L76.725 63.4825C76.9443 63.739 77.2565 63.9026 77.6022 63.9026H79.4681L75.6842 59.1485L79.4495 54.3647Z" fill="white"></path><path d="M53.9621 62.8846L56.5602 58.3499V63.8733H58.534V54.3467H57.3074C56.9245 54.3467 56.5565 54.5474 56.3744 54.8968L53.267 60.5652L50.1596 54.8968C49.9774 54.5511 49.6095 54.3467 49.2266 54.3467H48V63.8733H49.9737V58.3499L52.5719 62.8846H53.9621Z" fill="white"></path><path d="M84.605 63.9996C81.8618 64.0368 79.6316 61.8772 79.613 59.1378C79.613 57.6398 80.0702 56.3946 80.9288 55.536C81.7875 54.696 83.0327 54.2388 84.512 54.2388C86.2479 54.2388 87.6194 54.8409 88.6082 56.0118L87.9874 56.5433C87.6046 56.8741 87.0359 56.889 86.6159 56.5805C86.0657 56.1605 85.3707 55.9597 84.5864 55.9597C82.6498 55.9597 81.4976 57.1306 81.4976 59.1043C81.4976 61.0966 82.687 62.3232 84.5864 62.3232C85.3892 62.3232 86.0657 62.1039 86.6159 61.7025C87.0173 61.3903 87.586 61.4089 87.9874 61.7397L88.6082 62.2712C87.6232 63.416 86.3073 63.9996 84.605 63.9996Z" fill="white"></path><path d="M96.072 63.9991C93.0017 63.9991 91.0986 62.1331 91.0986 59.1372C91.0986 56.1413 93.0017 54.2754 96.0348 54.2754C97.4993 54.2754 98.7222 54.6954 99.6737 55.554L99.2165 56.067C99.0158 56.2863 98.7222 56.4127 98.4285 56.4127C98.265 56.4127 98.0977 56.3755 97.9528 56.3012C97.3878 56.0075 96.7262 55.8625 96.0311 55.8625C94.0574 55.8625 92.8308 57.1226 92.8308 59.1521C92.8308 61.2002 94.1094 62.4602 96.1575 62.4602C97.1462 62.4602 97.9119 62.2781 98.4806 61.8767L98.5178 61.8581V59.9029H96.3433V59.2636C96.3433 58.7878 96.7262 58.405 97.2019 58.405H99.8893C99.9637 58.405 100.034 58.4793 100.034 58.5499V62.7724C99.1088 63.579 97.7744 63.9991 96.072 63.9991Z" fill="#00B897"></path><path d="M103.569 63.9809C102.893 63.9809 102.361 63.8359 101.96 63.5794C101.54 63.3044 101.32 62.903 101.32 62.3528V54.3799H102.38C102.763 54.3799 103.093 54.6921 103.093 55.0936V62.1149C103.093 62.1335 103.093 62.4606 103.368 62.7357C103.532 62.8992 103.733 62.9922 104.008 62.9922H104.208C104.283 62.9922 104.353 63.0665 104.353 63.1371V63.9957L103.569 63.9809Z" fill="#00B897"></path><defs><linearGradient id="paint0_linear_2986:44828" x1="76.9377" y1="33.5602" x2="105.74" y2="44.2036" gradientUnits="userSpaceOnUse"><stop stop-color="#53E57A" stop-opacity="0"></stop><stop offset="1" stop-color="#00A977"></stop></linearGradient></defs></svg>