<svg xmlns="http://www.w3.org/2000/svg" width="180" height="80" viewBox="0 0 180 80" fill="none"><path d="M110.601 38.3537V36.0322H111.551V35.2109H108.558V36.0322H109.508V38.3537H110.601Z" fill="white"></path><path d="M135.106 37.5634H135.405L135.962 38.3537H137.143L136.453 37.3842C136.653 37.2854 136.807 37.1528 136.913 36.9848C137.019 36.8169 137.072 36.6207 137.072 36.3963C137.072 36.1564 137.012 35.9476 136.889 35.7683C136.767 35.5891 136.594 35.4508 136.369 35.3548C136.143 35.2589 135.879 35.2109 135.576 35.2109H134V38.3523H135.107V37.5634H135.106ZM135.106 36.028H135.508C135.658 36.028 135.77 36.0605 135.846 36.124C135.921 36.1889 135.958 36.2792 135.958 36.3963C135.958 36.5135 135.921 36.6038 135.846 36.6673C135.77 36.7322 135.658 36.7633 135.508 36.7633H135.106V36.028Z" fill="white"></path><path d="M120.98 35.2109V36.9814C120.98 37.4627 121.125 37.8371 121.414 38.103C121.704 38.369 122.108 38.5034 122.626 38.5034C123.144 38.5034 123.548 38.3704 123.838 38.103C124.128 37.8371 124.272 37.4627 124.272 36.9814V35.2109H123.151V36.9482C123.151 37.1838 123.107 37.3558 123.019 37.4627C122.931 37.5697 122.802 37.6232 122.635 37.6232C122.468 37.6232 122.339 37.5697 122.251 37.4627C122.163 37.3558 122.117 37.1838 122.117 36.9482V35.2109H120.98Z" fill="white"></path><path d="M118.136 31.3197V24.2857H112.309C111.725 24.2857 111.229 24.4851 110.821 24.8839C110.41 25.2798 110.204 25.7601 110.204 26.3262V31.3197H111.87V26.316C111.87 26.1996 111.914 26.1006 111.999 26.0162C112.085 25.9318 112.189 25.891 112.307 25.891H116.467V31.3183H118.136V31.3197Z" fill="white"></path><path d="M133.437 29.5689C133.339 29.6649 133.221 29.713 133.086 29.713H127.722V31.3197H133.283C133.845 31.3197 134.333 31.1174 134.748 30.7114C135.147 30.3228 135.347 29.8352 135.347 29.2501L135.342 27.0452H129.264V26.3553C129.264 26.252 129.319 26.1457 129.427 26.0366C129.525 25.9405 129.643 25.8925 129.778 25.8925H135.341V24.2857H129.778C129.216 24.2857 128.728 24.488 128.313 24.8941C127.913 25.2827 127.714 25.7702 127.714 26.3553V28.5559H133.594V29.304C133.579 29.3898 133.525 29.4786 133.437 29.5689Z" fill="white"></path><path d="M161.837 27.0795V24.2857H155.863C155.28 24.2857 154.784 24.488 154.376 24.894C153.962 25.3028 153.755 25.7816 153.755 26.3316V31.3197H155.412V29.1109H158.879L160.093 31.3197H161.745L160.536 28.9755C160.794 28.8766 161.028 28.7238 161.236 28.5172C161.636 28.1243 161.837 27.6456 161.837 27.0795ZM160.18 27.0795C160.18 27.2047 160.143 27.3051 160.066 27.3793C159.981 27.4593 159.882 27.5001 159.772 27.5001H155.41V26.3331C155.41 26.2166 155.457 26.1162 155.55 26.0289C155.635 25.9387 155.74 25.8936 155.863 25.8936H160.18V27.0795Z" fill="white"></path><path d="M141.076 31.3197V25.8925H144.027V24.2857H136.395V25.8925H139.449V31.3197H141.076Z" fill="white"></path><path d="M160.781 37.6137C160.714 37.6432 160.604 37.658 160.449 37.658C160.268 37.658 160.08 37.6299 159.885 37.5752C159.69 37.5206 159.512 37.4481 159.354 37.3565L158.993 38.1649C159.16 38.2684 159.375 38.3512 159.636 38.4118C159.897 38.4724 160.165 38.5034 160.44 38.5034C160.772 38.5034 161.054 38.4546 161.287 38.3556C161.52 38.2566 161.694 38.1236 161.81 37.9566C161.928 37.7895 161.986 37.6018 161.986 37.3949C161.986 37.157 161.922 36.9693 161.794 36.8303C161.666 36.6929 161.515 36.5924 161.341 36.5318C161.166 36.4712 160.953 36.4165 160.701 36.3692C160.504 36.3308 160.364 36.2968 160.279 36.2628C160.194 36.2303 160.15 36.18 160.15 36.115C160.15 35.9776 160.294 35.9081 160.581 35.9081C160.872 35.9081 161.181 35.9894 161.506 36.152L161.843 35.3479C161.676 35.2534 161.482 35.1824 161.262 35.1336C161.042 35.0849 160.819 35.0612 160.59 35.0612C160.258 35.0612 159.976 35.11 159.743 35.2075C159.511 35.3051 159.336 35.4381 159.22 35.6066C159.102 35.7766 159.044 35.9643 159.044 36.1712C159.044 36.4091 159.107 36.5983 159.233 36.7372C159.36 36.8762 159.509 36.9767 159.679 37.0373C159.849 37.0979 160.064 37.1555 160.319 37.2087C160.517 37.2501 160.661 37.287 160.749 37.321C160.835 37.355 160.88 37.4068 160.88 37.4762C160.881 37.5383 160.848 37.5841 160.781 37.6137Z" fill="white"></path><path d="M152.857 24.2857H147.188C146.617 24.2857 146.119 24.4923 145.691 24.9085C145.28 25.3043 145.075 25.7932 145.075 26.3753V31.3197H146.742V29.5343H151.189V31.3197H152.857V24.2857ZM146.742 27.9279V26.269C146.742 26.1701 146.786 26.0784 146.872 25.994C146.949 25.9227 147.054 25.8878 147.188 25.8878H151.189V27.9279H146.742Z" fill="white"></path><path d="M149.505 36.0097V35.2109H146.871V38.3537H149.565V37.5536H147.945V37.1415H149.314V36.378H147.945V36.0097H149.505Z" fill="white"></path><path d="M126.667 27.8034H125.018V29.7188H120.684V26.3553C120.684 26.2331 120.732 26.1268 120.828 26.0366C120.923 25.9405 121.031 25.8925 121.149 25.8925H126.357V24.2857H121.149C120.571 24.2857 120.075 24.488 119.658 24.8941C119.243 25.2987 119.034 25.7862 119.034 26.3553V31.3197H126.664V27.8034H126.667Z" fill="white"></path><path d="M87.894 30.6956C88.3002 30.2999 88.5033 29.8111 88.5033 29.2292V24.2857H82.6608C82.0962 24.2857 81.6034 24.4923 81.1807 24.9084C80.7745 25.3041 80.5714 25.7929 80.5714 26.3748V29.2306C80.5714 29.8125 80.7745 30.3014 81.1807 30.6971C81.6034 31.1117 82.0962 31.3197 82.6608 31.3197H86.4139C86.9785 31.3168 87.4728 31.1102 87.894 30.6956ZM83.1671 29.7122V29.7165H82.6623C82.5338 29.7165 82.4293 29.6816 82.3501 29.6103C82.2635 29.523 82.2217 29.4314 82.2217 29.3354V26.2686C82.2217 26.1726 82.265 26.081 82.3501 25.9937C82.4293 25.9224 82.5323 25.8875 82.6623 25.8875H83.1671V25.8918H86.856V29.3354C86.856 29.4314 86.8127 29.523 86.7276 29.6103C86.6484 29.6816 86.5439 29.7165 86.4154 29.7165H85.9106V29.7122H83.1671Z" fill="white"></path><path d="M109.156 24.2857H107.51V31.3197H109.156V24.2857Z" fill="white"></path><path d="M85.8995 36.0097V35.2109H83.2653V38.3537H85.9591V37.5536H84.3393V37.1415H85.7088V36.378H84.3393V36.0097H85.8995Z" fill="white"></path><path d="M71.1897 35.2109H69.9455L71.3963 38.3537H72.5341L73.9863 35.2109H72.8486L72.0099 37.0469L71.1897 35.2109Z" fill="white"></path><path d="M79.6734 31.3197V24.2857H72.2083C71.622 24.2857 71.1246 24.4851 70.7146 24.8839C70.3017 25.2798 70.0952 25.7601 70.0952 26.3262V31.3197H71.7682V26.316C71.7682 26.1996 71.8119 26.1006 71.8978 26.0162C71.9837 25.9318 72.0877 25.891 72.2068 25.891H74.0561V31.3183H75.72V25.891H77.9989V31.3183H79.6734V31.3197Z" fill="white"></path><path d="M96.784 36.9256L98.0536 38.3537H98.9795V35.2109H97.8825V36.6391L96.6129 35.2109H95.687V38.3537H96.784V36.9256Z" fill="white"></path><path d="M106.463 31.3197V24.2857H100.745C100.172 24.2857 99.6861 24.4851 99.2855 24.8839C98.882 25.2798 98.6802 25.7601 98.6802 26.3262V31.3197H100.315V26.316C100.315 26.1996 100.358 26.1006 100.442 26.0162C100.526 25.9318 100.627 25.891 100.744 25.891H104.825V31.3183H106.463V31.3197Z" fill="white"></path><path d="M97.6326 27.0795V24.2857H91.6592C91.0755 24.2857 90.5803 24.488 90.1722 24.894C89.758 25.3028 89.551 25.7816 89.551 26.3316V31.3197H91.2075V29.1109H94.6751L95.889 31.3197H97.5411L96.3317 28.9755C96.5898 28.8766 96.8238 28.7238 97.0324 28.5172C97.4315 28.1243 97.6326 27.6456 97.6326 27.0795ZM95.9761 27.0795C95.9761 27.2047 95.9385 27.3051 95.862 27.3793C95.7765 27.4593 95.6775 27.5001 95.5679 27.5001H91.206V26.3331C91.206 26.2166 91.2525 26.1162 91.3456 26.0289C91.4311 25.9387 91.5361 25.8936 91.6592 25.8936H95.9761V27.0795Z" fill="white"></path><path d="M47.1853 35.2812L18.0135 62L45.4594 33.601C46.8991 32.1105 46.9531 29.8018 45.5838 28.25L36.544 18L47.1987 26.9053C48.7403 28.1931 51.016 28.1931 52.5561 26.9053L63.2108 18L54.0632 28.3725C52.7404 29.8732 52.7404 32.0886 54.0632 33.5879L63.2108 43.9604L52.6819 35.1601C51.0879 33.8257 48.7164 33.8782 47.1853 35.2812Z" fill="white"></path></svg>