<svg xmlns="http://www.w3.org/2000/svg" width="180" height="80" viewBox="0 0 180 80" fill="none"><path d="M122.519 28.6903V39.6288H119.991V28.6903H122.519Z" fill="white"></path><path d="M127.81 39.7471C127.002 39.7471 126.272 39.5746 125.622 39.2297C124.982 38.8848 124.474 38.3921 124.1 37.7515C123.735 37.111 123.553 36.362 123.553 35.5047C123.553 34.6572 123.74 33.9132 124.114 33.2726C124.489 32.6222 125.001 32.1246 125.652 31.7797C126.302 31.4348 127.031 31.2623 127.839 31.2623C128.647 31.2623 129.377 31.4348 130.027 31.7797C130.677 32.1246 131.19 32.6222 131.564 33.2726C131.939 33.9132 132.126 34.6572 132.126 35.5047C132.126 36.3522 131.934 37.1011 131.55 37.7515C131.175 38.3921 130.658 38.8848 129.997 39.2297C129.347 39.5746 128.618 39.7471 127.81 39.7471ZM127.81 37.5594C128.293 37.5594 128.702 37.382 129.037 37.0272C129.382 36.6725 129.554 36.1649 129.554 35.5047C129.554 34.8444 129.387 34.3369 129.051 33.9822C128.726 33.6274 128.322 33.45 127.839 33.45C127.347 33.45 126.938 33.6274 126.612 33.9822C126.287 34.3271 126.125 34.8346 126.125 35.5047C126.125 36.1649 126.282 36.6725 126.598 37.0272C126.923 37.382 127.327 37.5594 127.81 37.5594Z" fill="white"></path><path d="M132.669 35.5047C132.669 34.6473 132.841 33.8984 133.186 33.2579C133.541 32.6173 134.029 32.1246 134.65 31.7797C135.28 31.4348 136 31.2623 136.808 31.2623C137.842 31.2623 138.705 31.5333 139.395 32.0753C140.094 32.6173 140.552 33.381 140.769 34.3665H138.079C137.852 33.7358 137.414 33.4205 136.763 33.4205C136.3 33.4205 135.931 33.6028 135.655 33.9674C135.379 34.3222 135.241 34.8346 135.241 35.5047C135.241 36.1748 135.379 36.6922 135.655 37.0568C135.931 37.4115 136.3 37.5889 136.763 37.5889C137.414 37.5889 137.852 37.2736 138.079 36.6429H140.769C140.552 37.6086 140.094 38.3674 139.395 38.9193C138.695 39.4711 137.833 39.7471 136.808 39.7471C136 39.7471 135.28 39.5746 134.65 39.2297C134.029 38.8848 133.541 38.3921 133.186 37.7515C132.841 37.111 132.669 36.362 132.669 35.5047Z" fill="white"></path><path d="M146.866 39.6288L144.353 36.1699V39.6288H141.826V28.6903H144.353V34.736L146.851 31.3806H149.97L146.541 35.5195L150 39.6288H146.866Z" fill="white"></path><path d="M116.81 33.6481C117.475 33.7897 118.009 34.122 118.412 34.6449C118.815 35.157 119.016 35.7453 119.016 36.4099C119.016 37.3686 118.679 38.1313 118.003 38.6978C117.339 39.2534 116.407 39.5312 115.209 39.5312H109.865V28.0591H115.029C116.195 28.0591 117.104 28.326 117.758 28.8598C118.423 29.3937 118.755 30.1182 118.755 31.0333C118.755 31.7088 118.575 32.2699 118.216 32.7166C117.867 33.1633 117.399 33.4738 116.81 33.6481ZM112.659 32.7002H114.49C114.947 32.7002 115.296 32.6022 115.536 32.4061C115.786 32.1991 115.911 31.8995 115.911 31.5073C115.911 31.1151 115.786 30.8154 115.536 30.6084C115.296 30.4014 114.947 30.2979 114.49 30.2979H112.659V32.7002ZM114.718 37.276C115.187 37.276 115.546 37.1725 115.797 36.9655C116.058 36.7476 116.189 36.4371 116.189 36.034C116.189 35.6309 116.053 35.315 115.781 35.0862C115.519 34.8574 115.154 34.743 114.686 34.743H112.659V37.276H114.718Z" fill="white"></path><path d="M108.89 35.3717C108.89 35.6082 108.875 35.8546 108.845 36.1108H103.125C103.164 36.6233 103.327 37.0174 103.613 37.2934C103.908 37.5594 104.268 37.6925 104.692 37.6925C105.322 37.6925 105.761 37.4264 106.007 36.8943H108.698C108.56 37.4363 108.308 37.9241 107.944 38.3577C107.589 38.7913 107.141 39.1312 106.599 39.3776C106.057 39.624 105.45 39.7471 104.78 39.7471C103.972 39.7471 103.253 39.5747 102.622 39.2298C101.992 38.8849 101.499 38.3921 101.144 37.7516C100.789 37.1111 100.612 36.3621 100.612 35.5048C100.612 34.6474 100.784 33.8985 101.129 33.2579C101.484 32.6174 101.977 32.1247 102.607 31.7798C103.238 31.4349 103.962 31.2624 104.78 31.2624C105.579 31.2624 106.288 31.4299 106.909 31.765C107.53 32.1 108.013 32.578 108.358 33.1988C108.712 33.8197 108.89 34.544 108.89 35.3717ZM106.303 34.7066C106.303 34.273 106.155 33.9281 105.859 33.6718C105.564 33.4156 105.194 33.2875 104.751 33.2875C104.327 33.2875 103.967 33.4107 103.672 33.6571C103.386 33.9034 103.209 34.2533 103.14 34.7066H106.303Z" fill="white"></path><path d="M96.7362 31.4783C97.7262 31.4783 98.5115 31.7781 99.0921 32.3778C99.6823 32.9775 99.9774 33.8104 99.9774 34.8765V39.5312H97.5501V35.2049C97.5501 34.6909 97.4121 34.2958 97.136 34.0198C96.8695 33.7342 96.4983 33.5915 96.0223 33.5915C95.5464 33.5915 95.1704 33.7342 94.8944 34.0198C94.6278 34.2958 94.4946 34.6909 94.4946 35.2049V39.5312H92.0673V35.2049C92.0673 34.6909 91.9293 34.2958 91.6532 34.0198C91.3867 33.7342 91.0155 33.5915 90.5395 33.5915C90.0636 33.5915 89.6876 33.7342 89.4115 34.0198C89.145 34.2958 89.0118 34.6909 89.0118 35.2049V39.5312H86.5702V31.564H89.0118V32.5634C89.2592 32.2303 89.5829 31.9685 89.9827 31.7781C90.3825 31.5782 90.8346 31.4783 91.3391 31.4783C91.9388 31.4783 92.4718 31.6068 92.9383 31.8638C93.4142 32.1208 93.7854 32.4873 94.0519 32.9632C94.328 32.5253 94.704 32.1684 95.1799 31.8923C95.6559 31.6163 96.1746 31.4783 96.7362 31.4783Z" fill="white"></path><path d="M85.6993 31.2831V39.5313H83.1716V31.2831H85.6993Z" fill="white"></path><path d="M79.8508 32.6576C80.1465 32.2043 80.516 31.8495 80.9595 31.5933C81.4029 31.3272 81.8956 31.1942 82.4376 31.1942V33.8697H81.7429C81.1122 33.8697 80.6392 34.0076 80.3238 34.2836C80.0085 34.5496 79.8508 35.0226 79.8508 35.7026V39.5311H77.3231V31.2829H79.8508V32.6576Z" fill="white"></path><path d="M77.0737 32.6384C77.0737 33.3541 76.9094 34.0111 76.5809 34.6095C76.2523 35.1962 75.7478 35.6714 75.0673 36.0351C74.3867 36.3989 73.542 36.5807 72.5329 36.5807H70.6673V39.5571H67.6577V28.6608H72.5329C73.5185 28.6608 74.3515 28.8309 75.0321 29.1712C75.7126 29.5114 76.223 29.9808 76.5633 30.5792C76.9035 31.1776 77.0737 31.864 77.0737 32.6384ZM72.3041 34.1871C72.879 34.1871 73.3073 34.0522 73.5889 33.7823C73.8705 33.5125 74.0113 33.1311 74.0113 32.6384C74.0113 32.1456 73.8705 31.7642 73.5889 31.4944C73.3073 31.2245 72.879 31.0896 72.3041 31.0896H70.6673V34.1871H72.3041Z" fill="white"></path><path d="M76.3776 42.602L73.3662 51.0921H70.778L67.7666 42.602H69.9677L72.0721 49.0119L74.1886 42.602H76.3776Z" fill="white"></path><path d="M83.0593 47.609C83.0593 47.8025 83.0472 48.0041 83.023 48.2137H78.3425C78.3748 48.633 78.5078 48.9555 78.7416 49.1812C78.9835 49.3989 79.2778 49.5078 79.6245 49.5078C80.1405 49.5078 80.4993 49.2901 80.7009 48.8547H82.902C82.7892 49.2981 82.5835 49.6973 82.2852 50.052C81.995 50.4068 81.6281 50.6849 81.1847 50.8865C80.7412 51.0881 80.2453 51.1889 79.6971 51.1889C79.0359 51.1889 78.4473 51.0478 77.9313 50.7656C77.4153 50.4834 77.0122 50.0802 76.7219 49.5562C76.4316 49.0321 76.2865 48.4193 76.2865 47.7178C76.2865 47.0164 76.4276 46.4036 76.7098 45.8795C77.0001 45.3554 77.4032 44.9523 77.9192 44.6701C78.4352 44.3879 79.0279 44.2468 79.6971 44.2468C80.3502 44.2468 80.9307 44.3839 81.4386 44.658C81.9466 44.9321 82.3417 45.3232 82.6239 45.8311C82.9141 46.3391 83.0593 46.9317 83.0593 47.609ZM80.9428 47.0648C80.9428 46.71 80.8218 46.4278 80.5799 46.2182C80.3381 46.0085 80.0357 45.9037 79.6729 45.9037C79.3262 45.9037 79.0319 46.0045 78.79 46.2061C78.5562 46.4076 78.4111 46.6939 78.3546 47.0648H80.9428Z" fill="white"></path><path d="M87.7181 44.271C88.5082 44.271 89.1371 44.529 89.6048 45.045C90.0805 45.553 90.3183 46.2544 90.3183 47.1494V51.0921H88.2623V47.4276C88.2623 46.9761 88.1454 46.6253 87.9116 46.3754C87.6777 46.1254 87.3633 46.0005 86.9682 46.0005C86.5731 46.0005 86.2587 46.1254 86.0249 46.3754C85.7911 46.6253 85.6741 46.9761 85.6741 47.4276V51.0921H83.606V44.3436H85.6741V45.2385C85.8838 44.9402 86.166 44.7064 86.5207 44.5371C86.8755 44.3597 87.2746 44.271 87.7181 44.271Z" fill="white"></path><path d="M94.9725 49.3385V51.0921H93.9203C93.1705 51.0921 92.5859 50.9107 92.1666 50.5479C91.7474 50.177 91.5377 49.5763 91.5377 48.7458V46.0609H90.7153V44.3436H91.5377V42.6988H93.6058V44.3436H94.9604V46.0609H93.6058V48.77C93.6058 48.9716 93.6542 49.1167 93.751 49.2054C93.8477 49.2941 94.009 49.3385 94.2347 49.3385H94.9725Z" fill="white"></path><path d="M102.244 44.3436V51.0921H100.176V50.173C99.9664 50.4713 99.6801 50.7132 99.3173 50.8986C98.9625 51.076 98.5675 51.1647 98.1321 51.1647C97.6161 51.1647 97.1605 51.0518 96.7654 50.826C96.3704 50.5922 96.064 50.2576 95.8463 49.8222C95.6286 49.3868 95.5197 48.8748 95.5197 48.2863V44.3436H97.5758V48.0081C97.5758 48.4596 97.6927 48.8103 97.9265 49.0603C98.1603 49.3102 98.4748 49.4352 98.8698 49.4352C99.273 49.4352 99.5914 49.3102 99.8253 49.0603C100.059 48.8103 100.176 48.4596 100.176 48.0081V44.3436H102.244Z" fill="white"></path><path d="M105.253 45.4683C105.495 45.0974 105.798 44.8072 106.161 44.5975C106.523 44.3799 106.926 44.271 107.37 44.271V46.46H106.802C106.286 46.46 105.898 46.5729 105.64 46.7987C105.382 47.0164 105.253 47.4034 105.253 47.9597V51.0921H103.185V44.3436H105.253V45.4683Z" fill="white"></path><path d="M114.176 47.609C114.176 47.8025 114.164 48.0041 114.139 48.2137H109.459C109.491 48.633 109.624 48.9555 109.858 49.1812C110.1 49.3989 110.394 49.5078 110.741 49.5078C111.257 49.5078 111.616 49.2901 111.817 48.8547H114.019C113.906 49.2981 113.7 49.6973 113.402 50.052C113.111 50.4068 112.745 50.6849 112.301 50.8865C111.858 51.0881 111.362 51.1889 110.814 51.1889C110.152 51.1889 109.564 51.0478 109.048 50.7656C108.532 50.4834 108.129 50.0802 107.838 49.5562C107.548 49.0321 107.403 48.4193 107.403 47.7178C107.403 47.0164 107.544 46.4036 107.826 45.8795C108.117 45.3554 108.52 44.9523 109.036 44.6701C109.552 44.3879 110.144 44.2468 110.814 44.2468C111.467 44.2468 112.047 44.3839 112.555 44.658C113.063 44.9321 113.458 45.3232 113.74 45.8311C114.031 46.3391 114.176 46.9317 114.176 47.609ZM112.059 47.0648C112.059 46.71 111.938 46.4278 111.696 46.2182C111.455 46.0085 111.152 45.9037 110.789 45.9037C110.443 45.9037 110.148 46.0045 109.907 46.2061C109.673 46.4076 109.528 46.6939 109.471 47.0648H112.059Z" fill="white"></path><path d="M117.468 51.1889C116.879 51.1889 116.355 51.0881 115.896 50.8865C115.436 50.6849 115.073 50.4108 114.807 50.0641C114.541 49.7093 114.392 49.3143 114.36 48.8789H116.404C116.428 49.1127 116.537 49.3022 116.73 49.4473C116.924 49.5924 117.162 49.665 117.444 49.665C117.702 49.665 117.899 49.6166 118.036 49.5199C118.181 49.4151 118.254 49.282 118.254 49.1208C118.254 48.9273 118.153 48.7862 117.952 48.6975C117.75 48.6007 117.424 48.4959 116.972 48.383C116.488 48.2701 116.085 48.1532 115.763 48.0323C115.44 47.9033 115.162 47.7057 114.928 47.4397C114.694 47.1655 114.577 46.7987 114.577 46.3391C114.577 45.9521 114.682 45.6014 114.892 45.2869C115.11 44.9644 115.424 44.7104 115.835 44.525C116.254 44.3395 116.75 44.2468 117.323 44.2468C118.169 44.2468 118.835 44.4564 119.318 44.8757C119.81 45.295 120.092 45.8513 120.165 46.5447H118.254C118.222 46.3109 118.117 46.1254 117.94 45.9884C117.77 45.8513 117.545 45.7828 117.262 45.7828C117.02 45.7828 116.835 45.8312 116.706 45.9279C116.577 46.0166 116.512 46.1416 116.512 46.3028C116.512 46.4963 116.613 46.6415 116.815 46.7382C117.024 46.835 117.347 46.9317 117.782 47.0285C118.282 47.1575 118.689 47.2865 119.004 47.4155C119.318 47.5364 119.592 47.738 119.826 48.0202C120.068 48.2943 120.193 48.6652 120.201 49.1329C120.201 49.5279 120.088 49.8827 119.863 50.1971C119.645 50.5035 119.326 50.7454 118.907 50.9228C118.496 51.1002 118.016 51.1889 117.468 51.1889Z" fill="white"></path><path d="M83.1716 28.6608H85.6992V30.8029H83.1716V28.6608Z" fill="white"></path><path d="M30 59.0436H37.7421V35.6789C38.043 33.4522 39.1227 28.261 45.3461 28.261C52.1165 28.261 53.0519 35.0471 53.0519 35.6789C53.0519 36.3108 53.0192 43.4265 45.3461 43.4265V51.2206C52.6118 50.847 61.2339 47.9 61.2339 35.8437C61.2339 22.0274 48.1166 20.957 45.3461 20.957C41.2743 20.957 30 22.8867 30 35.2089V43.4158H37.736V51.213H30V59.0436Z" fill="white"></path><path d="M37.7361 43.4155H45.3447V51.2128H37.7361V43.4155Z" fill="#C3C9D0"></path></svg>