<svg xmlns="http://www.w3.org/2000/svg" width="180" height="80" viewBox="0 0 180 80" fill="none"><path d="M53.0053 33.4807C53.0053 34.8969 52.9937 36.313 53.0053 37.7292C53.0053 38.1819 53.075 38.623 53.1098 39.0757C53.1214 39.1569 53.1214 39.2382 53.1098 39.3078C53.075 39.5051 53.0401 39.7025 52.9705 39.8882C52.8777 40.1087 52.634 40.0043 52.4599 40.0507C52.0537 40.1436 51.6243 40.19 51.2297 40.3061C50.8351 40.4105 50.3941 40.3757 50.0343 40.6311C49.5469 40.6079 49.0943 40.782 48.6301 40.8749C47.9918 41.0025 47.3419 41.0838 46.7152 41.2927C46.4715 41.374 46.2162 41.3856 45.9608 41.4436C45.6127 41.5249 45.2529 41.5945 44.8931 41.6758C44.5566 41.7454 44.22 41.7919 43.8835 41.9079C43.6746 41.9776 43.4193 41.9892 43.1871 42.0356C42.6301 42.1517 42.0846 42.2678 41.5276 42.3722C41.2026 42.4419 40.8893 42.4999 40.5643 42.5696C40.2394 42.6392 39.9144 42.6624 39.5895 42.7321C39.1833 42.8249 38.7539 42.8714 38.3593 42.9875C37.9647 43.0919 37.5469 43.1035 37.1523 43.2893C36.955 43.3821 36.6881 43.3589 36.456 43.4169C35.7597 43.5678 35.0518 43.6259 34.3786 43.8813C34.1929 43.9509 33.9492 43.8 33.7868 44.0089C33.4966 43.9277 33.2529 44.1598 32.9164 44.125C32.9164 43.8696 32.8931 43.6027 32.9164 43.3357C32.9744 42.8017 32.8003 42.3142 32.6378 41.8267C32.4986 41.3972 32.3593 40.9677 32.3013 40.5034C32.2432 40.0739 32.2897 39.6328 32.1968 39.2149C32.104 38.7971 32.1388 38.3908 32.0924 37.9845C32.0576 37.7059 31.9995 37.439 31.9763 37.1604C31.9531 36.8934 31.8603 36.6264 31.7326 36.3943C31.6049 36.1505 31.4076 35.93 31.2104 35.7442C30.7694 35.3264 30.8158 35.3264 30.8274 34.9201C30.9782 34.6183 31.2916 34.5602 31.5585 34.4906C31.8835 34.421 32.2084 34.5254 32.5102 34.6995C33.0556 35.0129 33.3574 35.5353 33.7287 35.988C34.1117 36.4639 34.8893 36.6612 35.3535 36.522C35.7829 36.3943 36.0382 36.0925 36.2819 35.7558C36.34 35.6746 36.3864 35.5585 36.398 35.454C36.4096 35.129 36.4676 34.7808 36.3864 34.479C36.3051 34.2004 36.0498 33.9683 35.9222 33.6897C35.6784 33.1557 35.1678 32.9352 34.7384 32.645C34.1349 32.2387 33.7287 31.7744 33.6011 31.0199C33.5547 30.7297 33.5314 30.4279 33.4966 30.1377C33.4154 29.3368 33.2529 28.5591 32.7887 27.8742C32.7075 27.7581 32.6262 27.6072 32.6378 27.4795C32.6378 27.2938 32.7075 27.1081 32.7539 26.9224C32.7771 26.8411 32.8351 26.7599 32.8699 26.7018C39.5663 28.9653 46.2626 31.2172 53.0053 33.4807Z" fill="#0047A0"></path><path d="M32.7423 45.309C32.9744 44.9956 33.369 45.2742 33.6127 45.0304C34.1233 45.0536 34.5875 44.8679 35.075 44.775C35.4928 44.6938 35.9222 44.6009 36.34 44.4848C36.5837 44.4152 36.839 44.3687 37.0943 44.3455C37.2916 44.3339 37.4425 44.2411 37.6282 44.2178C37.7906 44.1946 37.9647 44.2643 38.1156 44.1134C38.1504 44.0786 38.3245 44.1366 38.4173 44.1946C38.8467 44.4616 39.2761 44.7286 39.7055 45.0072C40.7732 45.7036 41.8177 46.4233 42.897 47.1198C44.22 47.9788 45.5547 48.8261 46.8661 49.7199C47.7365 50.3119 48.6417 50.8575 49.5701 51.4611C48.7229 51.9602 47.9106 52.4477 47.1098 52.9352C46.4483 53.3415 45.7984 53.7826 45.1137 54.1541C44.5914 54.4326 44.0924 54.7577 43.5701 55.0479C43.1523 55.2916 42.7461 55.2568 42.3167 55.2452C42.1891 55.2452 42.0498 55.1059 41.899 55.1523C41.6436 55.222 41.3767 55.28 41.1214 55.3845C40.8545 55.4889 40.6224 55.6631 40.3554 55.7791C39.7868 56.0229 39.2645 56.3363 38.7423 56.6497C38.3129 56.9051 37.8371 57.1024 37.3148 57.1256C37.0943 57.1372 36.8738 57.381 36.6881 57.2069C36.514 57.0444 36.2935 57.2069 36.1079 57.0328C35.9802 56.9051 35.1678 57.1721 34.9821 57.3346C34.5759 57.6944 34.2162 58.1123 33.9725 58.5998C33.6011 59.3195 32.9164 59.5517 32.1388 59.1802C31.8487 59.0409 31.5585 58.9016 31.2684 58.7507C30.8506 58.5302 30.5721 58.24 30.456 57.7176C30.3516 57.2185 30.3864 56.789 30.5373 56.3247C30.6417 55.9997 30.7578 55.6631 30.7229 55.3032C30.6997 54.9898 30.4792 54.7344 30.4792 54.4094C30.4792 54.3514 30.3632 54.305 30.3284 54.2469C29.8641 53.5388 29.9106 52.9352 30.3516 52.2504C30.6417 51.7861 30.8042 51.2753 30.955 50.7646C31.0363 50.5092 31.0827 50.2423 31.1755 49.9869C31.3612 49.4413 31.721 49.0583 32.1852 48.8029C32.4986 48.6404 32.6378 48.4198 32.7539 48.1064C32.8119 47.9323 32.8235 47.793 32.7539 47.6305C32.5218 47.0733 32.5682 46.4814 32.5798 45.901C32.5914 45.6804 32.6843 45.5063 32.7423 45.309Z" fill="#0047A0"></path><path d="M52.8893 32.3083C51.2065 31.786 49.6165 31.1824 48.0034 30.6368C46.3902 30.0913 44.7771 29.5573 43.1639 29.0233C41.5624 28.4894 39.9608 27.9903 38.3709 27.4215C36.7693 26.8527 35.1446 26.3536 33.4734 25.7616C33.6939 25.4482 33.8796 25.1696 34.0769 24.9026C34.6223 24.1365 35.1794 23.382 35.8873 22.7552C36.2471 22.4302 36.6649 22.256 37.1407 22.1516C37.5933 22.0471 38.0575 22.0007 38.4869 22.0819C39.0904 22.198 39.6939 22.1632 40.2974 22.1748C40.9125 22.1864 41.5392 22.2212 42.1543 22.1632C42.7461 22.1051 43.3612 22.0935 43.9299 21.8265C44.3477 21.6292 44.7655 21.4435 45.0788 21.0953C45.3806 20.747 45.7287 20.6077 46.1813 20.6542C46.2742 20.6658 46.367 20.6542 46.5063 20.6542C46.7384 21.1069 46.9705 21.5828 47.2142 22.0355C47.6552 22.8712 48.1194 23.6722 48.6301 24.4615C48.9899 25.0303 49.3496 25.5991 49.7442 26.1446C50.2897 26.8991 50.7771 27.7001 51.3341 28.4546C51.7984 29.093 52.2278 29.7662 52.4367 30.544C52.75 30.9502 52.6804 31.4842 52.9009 31.9253C52.9241 32.0065 52.8893 32.111 52.8893 32.3083Z" fill="#0047A0"></path><path d="M39.81 43.7883C44.2781 42.8597 48.6649 41.9543 53.0402 41.0489C53.2142 41.3159 53.0866 41.5713 53.1794 41.815C53.3535 42.2909 53.7017 42.5695 54.1427 42.6972C54.34 42.7553 54.4908 42.8481 54.6069 42.9874C54.9318 43.3937 55.1291 43.8348 54.9086 44.3571C54.8158 44.5777 54.955 44.8563 54.7578 45.042C54.6417 46.0518 54.3864 47.0385 54.0614 48.0019C53.7713 48.8725 53.3767 49.7083 52.8545 50.4512C52.6108 50.811 52.2626 51.1128 51.8332 51.3218C51.5779 51.4494 51.3806 51.3914 51.2297 51.2869C50.2897 50.6949 49.3728 50.0681 48.4444 49.4645C47.3883 48.7565 46.3206 48.06 45.2645 47.3519C44.7539 47.0153 44.2316 46.6903 43.7094 46.342C42.7578 45.7152 41.7945 45.0768 40.8429 44.45C40.5179 44.241 40.2046 44.0321 39.81 43.7883Z" fill="#0047A0"></path><path d="M81.47 54.482H78.4526L85.706 40.7849L92.9013 54.482H89.942L85.706 46.4146L81.47 54.482Z" fill="white"></path><path d="M95.9187 54.424V46.2985H102.534C102.882 46.2985 103.578 45.9735 103.578 44.9056C103.578 43.8377 102.882 43.474 102.534 43.3966H95.9187V40.901H102.94C104.004 41.1525 106.073 41.7135 106.132 44.7895C106.19 47.8656 104.004 48.6201 102.94 48.8522H98.53V54.424H95.9187Z" fill="white"></path><path d="M116.054 43.2225L116.867 40.6688H125.338V43.2225H122.031V54.424H119.42V43.2225H116.054Z" fill="white"></path><path d="M133.056 40.901L125.919 54.424H128.82L133.056 46.3566L137.35 54.424H140.193L133.056 40.901Z" fill="white"></path><path d="M143.211 54.5981V41.7135L145.764 40.901V52.0444H150L149.13 54.5981H143.211Z" fill="white"></path><path d="M65.9768 36.432H63.4236V28.3066H69.9806C69.9806 28.3066 71.0832 28.1905 71.0832 26.7976C71.0832 25.4046 70.0387 25.2886 70.0387 25.2886H63.4236V22.7929H70.5609C70.5609 22.7929 73.5783 22.967 73.5783 26.9717C73.5783 30.9763 69.5745 30.8603 69.5745 30.8603L75.1451 36.432H71.4893L65.9768 30.9183V36.432Z" fill="white"></path><path fill-rule="evenodd" clip-rule="evenodd" d="M84.8936 36.432C88.6752 36.432 91.7408 33.3658 91.7408 29.5834C91.7408 25.801 88.6752 22.7349 84.8936 22.7349C81.112 22.7349 78.0464 25.801 78.0464 29.5834C78.0464 33.3658 81.112 36.432 84.8936 36.432ZM84.8936 33.8783C87.2651 33.8783 89.1876 31.9554 89.1876 29.5834C89.1876 27.2114 87.2651 25.2886 84.8936 25.2886C82.5221 25.2886 80.5996 27.2114 80.5996 29.5834C80.5996 31.9554 82.5221 33.8783 84.8936 33.8783Z" fill="white"></path><path d="M95.7447 36.3739V22.909H98.2979V27.2619L102.65 22.909H106.19L99.5164 29.5834L106.306 36.3739H102.65L98.2979 32.021V36.3739H95.7447Z" fill="white"></path><path d="M75.8406 51.5488C74.6203 53.3536 72.5551 54.54 70.2128 54.54C66.4632 54.54 63.4236 51.4998 63.4236 47.7495C63.4236 43.9992 66.4632 40.959 70.2128 40.959C72.59 40.959 74.6818 42.181 75.8946 44.0313L73.7507 45.4188C72.993 44.2704 71.6913 43.5127 70.2128 43.5127C67.8733 43.5127 65.9768 45.4096 65.9768 47.7495C65.9768 50.0894 67.8733 51.9863 70.2128 51.9863C71.6564 51.9863 72.9314 51.264 73.6961 50.1609L75.8406 51.5488Z" fill="white"></path><path d="M109.149 54.482V41.7135L111.76 40.901V54.482H109.149Z" fill="white"></path></svg>