<svg xmlns="http://www.w3.org/2000/svg" width="180" height="80" viewBox="0 0 180 80" fill="none"><path d="M64.075 59.4847C64.075 59.8773 64.0137 60.2331 63.891 60.5521C63.7683 60.8629 63.6006 61.1247 63.3879 61.3373C63.1834 61.55 62.9381 61.7136 62.6518 61.8281C62.3655 61.9426 62.0587 61.9999 61.7316 61.9999C61.2899 61.9999 60.8686 61.9099 60.4678 61.73C60.0752 61.5418 59.7603 61.2964 59.5231 60.9938L60.1733 60.1963C60.3615 60.4417 60.5946 60.6339 60.8727 60.7729C61.159 60.912 61.4453 60.9815 61.7316 60.9815C62.0996 60.9815 62.4023 60.8588 62.6395 60.6134C62.8767 60.3681 62.9953 60.0122 62.9953 59.546C62.9953 59.3252 62.9585 59.1329 62.8849 58.9693C62.8113 58.7976 62.709 58.6463 62.5782 58.5154C62.4473 58.3763 62.296 58.2536 62.1242 58.1473C61.9606 58.0328 61.7806 57.9264 61.5843 57.8283C61.3471 57.7138 61.1222 57.587 60.9095 57.4479C60.705 57.3007 60.521 57.133 60.3574 56.9449C60.1938 56.7568 60.0629 56.5359 59.9648 56.2823C59.8748 56.0206 59.8298 55.7139 59.8298 55.3621C59.8298 54.945 59.8952 54.581 60.0261 54.2702C60.157 53.9593 60.3288 53.7017 60.5414 53.4972C60.7623 53.2927 61.0118 53.1414 61.2899 53.0432C61.568 52.9451 61.8502 52.896 62.1365 52.896C62.5536 52.896 62.9258 52.9655 63.253 53.1046C63.5883 53.2436 63.8664 53.4522 64.0873 53.7303L63.4247 54.5156C63.1139 54.1066 62.6968 53.9021 62.1733 53.9021C62.0178 53.9021 61.8624 53.9307 61.707 53.988C61.5598 54.037 61.4248 54.1229 61.3021 54.2456C61.1794 54.3601 61.0813 54.5074 61.0077 54.6873C60.9341 54.8673 60.8972 55.084 60.8972 55.3376C60.8972 55.5585 60.93 55.7507 60.9954 55.9143C61.069 56.0697 61.1631 56.2128 61.2776 56.3437C61.4003 56.4664 61.5393 56.5809 61.6948 56.6872C61.8502 56.7854 62.0178 56.8795 62.1978 56.9694C62.4268 57.084 62.6518 57.2148 62.8726 57.3621C63.0935 57.5011 63.2939 57.6688 63.4738 57.8651C63.6538 58.0614 63.7969 58.2945 63.9032 58.5645C64.0178 58.8262 64.075 59.1329 64.075 59.4847Z" fill="white"></path><path d="M71.1229 57.4357C71.1229 58.1146 71.0534 58.7362 70.9143 59.3006C70.7835 59.8568 70.5872 60.3353 70.3254 60.7361C70.0718 61.1369 69.761 61.4478 69.3929 61.6686C69.033 61.8895 68.62 61.9999 68.1537 61.9999C67.6875 61.9999 67.2703 61.8895 66.9022 61.6686C66.5342 61.4478 66.2193 61.1369 65.9575 60.7361C65.7039 60.3353 65.5076 59.8568 65.3686 59.3006C65.2377 58.7362 65.1723 58.1146 65.1723 57.4357C65.1723 56.7568 65.2377 56.1392 65.3686 55.583C65.4994 55.0186 65.6917 54.5401 65.9452 54.1475C66.1988 53.7467 66.5096 53.4399 66.8777 53.2273C67.254 53.0064 67.6793 52.896 68.1537 52.896C68.62 52.896 69.033 53.0064 69.3929 53.2273C69.761 53.4399 70.0718 53.7467 70.3254 54.1475C70.5872 54.5401 70.7835 55.0186 70.9143 55.583C71.0534 56.1392 71.1229 56.7568 71.1229 57.4357ZM69.9573 57.4357C69.9573 56.9449 69.9164 56.4827 69.8346 56.0492C69.761 55.6157 69.6465 55.2394 69.4911 54.9204C69.3439 54.6014 69.1557 54.352 68.9267 54.172C68.7058 53.9839 68.4482 53.8898 68.1537 53.8898C67.8511 53.8898 67.5852 53.9839 67.3562 54.172C67.1272 54.352 66.935 54.6014 66.7796 54.9204C66.6323 55.2394 66.5219 55.6157 66.4483 56.0492C66.3747 56.4827 66.3379 56.9449 66.3379 57.4357C66.3379 57.9264 66.3747 58.3886 66.4483 58.8221C66.5219 59.2556 66.6323 59.6319 66.7796 59.9509C66.935 60.2699 67.1272 60.5235 67.3562 60.7116C67.5852 60.8916 67.8511 60.9815 68.1537 60.9815C68.4482 60.9815 68.7058 60.8916 68.9267 60.7116C69.1557 60.5235 69.3439 60.2699 69.4911 59.9509C69.6465 59.6319 69.761 59.2556 69.8346 58.8221C69.9164 58.3886 69.9573 57.9264 69.9573 57.4357Z" fill="white"></path><path d="M77.7006 58.8098C77.7006 59.2515 77.6556 59.6646 77.5656 60.0491C77.4756 60.4335 77.3284 60.7729 77.1239 61.0674C76.9194 61.3537 76.6495 61.5827 76.3141 61.7545C75.9869 61.9181 75.582 61.9999 75.0995 61.9999C74.6169 61.9999 74.212 61.9181 73.8848 61.7545C73.5658 61.5827 73.304 61.3537 73.0995 61.0674C72.8951 60.7729 72.7478 60.4335 72.6578 60.0491C72.576 59.6646 72.5351 59.2515 72.5351 58.8098V53.1046H73.6394V58.6994C73.6394 58.9939 73.6598 59.2802 73.7007 59.5583C73.7498 59.8282 73.8275 60.0695 73.9339 60.2822C74.0484 60.4948 74.1997 60.6666 74.3878 60.7975C74.5841 60.9202 74.8295 60.9815 75.124 60.9815C75.4185 60.9815 75.6598 60.9202 75.8479 60.7975C76.036 60.6666 76.1832 60.4948 76.2896 60.2822C76.4041 60.0695 76.4818 59.8282 76.5227 59.5583C76.5718 59.2802 76.5963 58.9939 76.5963 58.6994V53.1046H77.7006V58.8098Z" fill="white"></path><path d="M79.4875 61.7913V53.1046H80.5917V60.7607H83.0456V61.7913H79.4875Z" fill="white"></path><path d="M90.8988 60.8588C90.6779 61.2024 90.3957 61.4805 90.0522 61.6932C89.7087 61.8976 89.2915 61.9999 88.8007 61.9999C88.3181 61.9999 87.8846 61.8854 87.5002 61.6563C87.1157 61.4273 86.7926 61.1083 86.5309 60.6993C86.2691 60.2904 86.0687 59.8118 85.9297 59.2638C85.7906 58.7076 85.7211 58.1023 85.7211 57.4479C85.7211 56.7936 85.7906 56.1883 85.9297 55.6321C86.0769 55.0759 86.2814 54.5974 86.5431 54.1966C86.8131 53.7876 87.1362 53.4686 87.5124 53.2395C87.8969 53.0105 88.3263 52.896 88.8007 52.896C89.2424 52.896 89.6473 52.9819 90.0154 53.1537C90.3835 53.3254 90.6861 53.5872 90.9233 53.9389L90.2362 54.6873C90.0563 54.4256 89.8477 54.2334 89.6105 54.1107C89.3733 53.9798 89.1197 53.9144 88.8498 53.9144C88.5144 53.9144 88.2241 54.0084 87.9787 54.1966C87.7333 54.3847 87.5288 54.6382 87.3652 54.9573C87.2098 55.2763 87.0912 55.6525 87.0094 56.086C86.9276 56.5114 86.8867 56.9653 86.8867 57.4479C86.8867 57.9305 86.9276 58.3845 87.0094 58.8098C87.0912 59.2352 87.2139 59.6114 87.3775 59.9386C87.5411 60.2576 87.7456 60.5112 87.9909 60.6993C88.2445 60.8875 88.539 60.9815 88.8743 60.9815C89.177 60.9815 89.4428 60.8997 89.6718 60.7361C89.9091 60.5725 90.0972 60.3721 90.2362 60.1349L90.8988 60.8588Z" fill="white"></path><path d="M95.6913 61.7913L95.2006 59.7546H92.6853L92.1823 61.7913H91.0658L93.2497 53.1046H94.7098L96.8447 61.7913H95.6913ZM93.9859 54.1352H93.9368L92.8326 58.8835H95.0533L93.9859 54.1352Z" fill="white"></path><path d="M102.406 55.5462C102.406 55.9633 102.345 56.3314 102.222 56.6504C102.1 56.9694 101.932 57.2353 101.719 57.4479C101.515 57.6524 101.278 57.8078 101.008 57.9142C100.746 58.0205 100.468 58.0737 100.173 58.0737H98.9955V61.7913H97.9036V53.1046H100.1C100.362 53.1046 100.627 53.1455 100.897 53.2273C101.175 53.3009 101.425 53.4318 101.646 53.6199C101.867 53.808 102.047 54.0616 102.186 54.3806C102.333 54.6914 102.406 55.0799 102.406 55.5462ZM101.314 55.5585C101.314 55.035 101.192 54.6546 100.946 54.4174C100.701 54.172 100.382 54.0493 99.9893 54.0493H98.9955V57.1535H99.9893C100.382 57.1535 100.701 57.0226 100.946 56.7609C101.192 56.4909 101.314 56.0901 101.314 55.5585Z" fill="white"></path><path d="M103.727 61.7913V53.1046H104.831V61.7913H103.727Z" fill="white"></path><path d="M108.537 54.0493V61.7913H107.446V54.0493H105.789V53.1046H110.194V54.0493H108.537Z" fill="white"></path><path d="M114.706 61.7913L114.216 59.7546H111.7L111.197 61.7913H110.081L112.265 53.1046H113.725L115.86 61.7913H114.706ZM113.001 54.1352H112.952L111.848 58.8835H114.068L113.001 54.1352Z" fill="white"></path><path d="M116.919 61.7913V53.1046H118.023V60.7607H120.477V61.7913H116.919Z" fill="white"></path><path d="M108.438 24.3943C108.438 24.3943 114.833 18.218 115.123 18H72.0346L64.2598 28.2454L71.962 37.1102H102.407L105.605 40.4526L102.553 43.2138H71.962L64.3324 49.8987H108.438L115.705 40.38L108.438 31.0065H77.0483L73.9965 27.8821L77.0483 24.3943H108.438Z" fill="white"></path></svg>