<svg xmlns="http://www.w3.org/2000/svg" width="180" height="80" viewBox="0 0 180 80" fill="none"><path d="M79.0962 36.4984H77.2251V48.7153H79.0962V36.4984Z" fill="white"></path><path d="M87.4781 31.3234H72.2271V33.1944H87.4781V31.3234Z" fill="white"></path><path d="M82.4759 36.4984H80.6048V48.7153H82.4759V36.4984Z" fill="white"></path><path d="M134.167 48.7279H136.055V41.3699L134.167 39.2713V48.7279Z" fill="white"></path><path d="M144.108 31.3234V44.9646L130.753 30.1223V48.7278H132.637V35.0824L146 49.9289V31.3234H144.108Z" fill="white"></path><path d="M118.528 31.3149C113.728 31.3149 109.826 35.2172 109.826 40.0172C109.826 44.8171 113.728 48.7194 118.528 48.7194C123.328 48.7194 127.23 44.8171 127.23 40.0172C127.23 35.2214 123.328 31.3149 118.528 31.3149ZM118.528 46.8441C114.765 46.8441 111.701 43.7846 111.701 40.0172C111.701 36.2497 114.761 33.1902 118.528 33.1902C122.291 33.1902 125.355 36.2497 125.355 40.0172C125.355 43.7804 122.291 46.8441 118.528 46.8441Z" fill="white"></path><path d="M118.528 38.7656C117.837 38.7656 117.276 39.3261 117.276 40.0172C117.276 40.7083 117.837 41.2688 118.528 41.2688C119.219 41.2688 119.78 40.7083 119.78 40.0172C119.78 39.3261 119.219 38.7656 118.528 38.7656Z" fill="white"></path><path d="M106.551 36.6627C106.551 33.7212 104.175 31.3276 101.254 31.3276H91.3004V48.7321H93.1588V33.2155H101.254C103.13 33.2155 104.655 34.7621 104.655 36.6627C104.655 38.5549 103.151 40.093 101.292 40.1141L94.6885 40.1099V48.7321H96.547V41.9978H100.9L104.457 48.7278H106.619L102.906 41.7323C105.051 41.0201 106.551 38.9468 106.551 36.6627Z" fill="white"></path><path d="M59.3608 27.876L34 23.2109L47.3463 56.7894L65.9391 34.134L59.3608 27.876ZM58.9563 29.9325L62.8375 33.6199L52.2263 35.5416L58.9563 29.9325ZM49.9211 35.1581L38.7367 25.8827L57.0135 29.2456L49.9211 35.1581ZM49.1204 36.8016L47.2999 51.8757L37.4683 27.1301L49.1204 36.8016ZM50.8061 37.5981L62.5552 35.4699L49.0825 51.8883L50.8061 37.5981Z" fill="#EB0029"></path></svg>